<svg width="17" height="20" viewBox="0 0 17 20" fill="none" xmlns="http://www.w3.org/2000/svg">
<path d="M14.6668 10.4167V5.66666C14.6668 4.26653 14.6668 3.56646 14.3943 3.03168C14.1547 2.56128 13.7722 2.17882 13.3018 1.93914C12.767 1.66666 12.067 1.66666 10.6668 1.66666H5.3335C3.93336 1.66666 3.2333 1.66666 2.69852 1.93914C2.22811 2.17882 1.84566 2.56128 1.60598 3.03168C1.3335 3.56646 1.3335 4.26653 1.3335 5.66666V14.3333C1.3335 15.7335 1.3335 16.4335 1.60598 16.9683C1.84566 17.4387 2.22811 17.8212 2.69852 18.0608C3.2333 18.3333 3.93336 18.3333 5.3335 18.3333H8.00016M9.66683 9.16666H4.66683M6.3335 12.5H4.66683M11.3335 5.83332H4.66683M10.0835 15.8333L11.7502 17.5L15.5002 13.75" stroke="#2D67F6" stroke-width="1.67" stroke-linecap="round" stroke-linejoin="round"/>
</svg>
