<svg width="20" height="18" viewBox="0 0 20 18" fill="none" xmlns="http://www.w3.org/2000/svg">
<path d="M10.8332 4.83333L9.90355 2.9741C9.63601 2.439 9.50222 2.17144 9.30265 1.97597C9.12615 1.80311 8.91344 1.67164 8.6799 1.59109C8.41581 1.5 8.11668 1.5 7.51841 1.5H4.33317C3.39975 1.5 2.93304 1.5 2.57652 1.68166C2.26292 1.84144 2.00795 2.09641 1.84816 2.41002C1.6665 2.76654 1.6665 3.23325 1.6665 4.16667V4.83333M1.6665 4.83333H14.3332C15.7333 4.83333 16.4334 4.83333 16.9681 5.10582C17.4386 5.3455 17.821 5.72795 18.0607 6.19836C18.3332 6.73314 18.3332 7.4332 18.3332 8.83333V12.5C18.3332 13.9001 18.3332 14.6002 18.0607 15.135C17.821 15.6054 17.4386 15.9878 16.9681 16.2275C16.4334 16.5 15.7333 16.5 14.3332 16.5H5.6665C4.26637 16.5 3.56631 16.5 3.03153 16.2275C2.56112 15.9878 2.17867 15.6054 1.93899 15.135C1.6665 14.6002 1.6665 13.9001 1.6665 12.5V4.83333ZM9.99984 13.1667V8.16667M7.49984 10.6667H12.4998" stroke="#2D67F6" stroke-width="1.67" stroke-linecap="round" stroke-linejoin="round"/>
</svg>
