<svg width="13" height="12" viewBox="0 0 13 12" fill="none" xmlns="http://www.w3.org/2000/svg">
<path d="M11.9561 4.25L11.9561 0.75M11.9561 0.75H8.45605M11.9561 0.75L7.28939 5.41667M5.53939 1.91667H4.25605C3.27596 1.91667 2.78592 1.91667 2.41157 2.10741C2.08229 2.27518 1.81457 2.5429 1.64679 2.87218C1.45605 3.24653 1.45605 3.73657 1.45605 4.71667V8.45C1.45605 9.43009 1.45605 9.92014 1.64679 10.2945C1.81457 10.6238 2.08229 10.8915 2.41157 11.0593C2.78592 11.25 3.27596 11.25 4.25605 11.25H7.98939C8.96948 11.25 9.45953 11.25 9.83387 11.0593C10.1632 10.8915 10.4309 10.6238 10.5986 10.2945C10.7894 9.92014 10.7894 9.43009 10.7894 8.45V7.16667" stroke="#060606" stroke-width="1.5" stroke-linecap="round" stroke-linejoin="round"/>
</svg>
