<svg width="27" height="28" viewBox="0 0 27 28" fill="none" xmlns="http://www.w3.org/2000/svg">
<path d="M8.84015 11.278C12.2863 9.62985 14.9833 6.83297 16.5316 3.33686C15.5327 2.28803 14.2341 1.53887 12.8357 1.08937L12.0865 0.839645C12.0366 0.939534 11.9867 1.08937 11.9867 1.18926C10.788 4.58548 8.34072 7.33242 5.04439 8.88069C2.74694 9.97947 1.04883 11.9772 0.249722 14.3746L0 15.1237C0.0998888 15.1737 0.249724 15.2236 0.349613 15.2236C1.29856 15.5732 2.2475 16.0227 3.1465 16.5721C4.39511 14.3246 6.39288 12.4267 8.84015 11.278Z" fill="#2D67F6"/>
<path d="M23.3254 11.4778C21.4775 14.2747 18.9303 16.5222 15.7839 18.0205C13.2367 19.2192 11.2889 21.4667 10.3899 24.1637L10.1401 25.0127C11.0891 25.8618 12.2378 26.5111 13.4864 26.9106L14.2356 27.1603C14.2855 27.0605 14.3355 26.9106 14.3355 26.8107C15.5341 23.4145 17.9814 20.6676 21.2777 19.1193C23.5752 18.0205 25.3232 16.0227 26.0724 13.6254L26.3221 12.8763C25.2733 12.5766 24.2744 12.0771 23.3254 11.4778Z" fill="#2D67F6"/>
<path d="M8.14112 22.4153C9.38973 19.4187 11.6872 16.9714 14.6339 15.573C17.3309 14.2744 19.5784 12.2766 21.1267 9.82936C19.9779 8.73058 19.029 7.48197 18.3298 5.98363C16.4818 9.37985 13.5851 12.1268 10.039 13.8249C7.99129 14.7739 6.34313 16.422 5.34424 18.4198C6.44301 19.4686 7.34201 20.7672 8.04124 22.2156C8.04124 22.2156 8.09118 22.3155 8.14112 22.4153Z" fill="#2D67F6"/>
</svg>
