<svg width="15" height="14" viewBox="0 0 15 14" fill="none" xmlns="http://www.w3.org/2000/svg">
<path d="M6.9991 5.00149C7.11656 4.66757 7.34841 4.386 7.65359 4.20665C7.95876 4.0273 8.31756 3.96174 8.66644 4.02158C9.01532 4.08142 9.33177 4.2628 9.55973 4.5336C9.78769 4.8044 9.91245 5.14714 9.91193 5.50112C9.91193 6.50037 8.41304 7 8.41304 7M8.43237 9H8.43903M8.33243 12.3333C11.462 12.3333 13.9991 9.79628 13.9991 6.66667C13.9991 3.53705 11.462 1 8.33243 1C5.20282 1 2.66577 3.53705 2.66577 6.66667C2.66577 7.3 2.76966 7.90906 2.96135 8.47774C3.03348 8.69175 3.06955 8.79875 3.07605 8.88095C3.08247 8.96213 3.07762 9.01905 3.05753 9.09797C3.0372 9.17788 2.9923 9.26099 2.90249 9.42721L1.81206 11.4456C1.65652 11.7335 1.57875 11.8774 1.59615 11.9885C1.61131 12.0853 1.66826 12.1705 1.75188 12.2215C1.84788 12.2801 2.01063 12.2632 2.33613 12.2296L5.75014 11.8767C5.85353 11.866 5.90522 11.8606 5.95234 11.8624C5.99868 11.8642 6.0314 11.8686 6.07659 11.879C6.12253 11.8896 6.18031 11.9118 6.29587 11.9564C6.9279 12.1999 7.61458 12.3333 8.33243 12.3333Z" stroke="#2D67F6" stroke-width="1.6" stroke-linecap="round" stroke-linejoin="round"/>
</svg>
