<svg width="20" height="20" viewBox="0 0 20 20" fill="none" xmlns="http://www.w3.org/2000/svg">
<path d="M7.61351 7.61359L4.1074 4.10748M4.1074 15.8926L7.63993 12.3601M12.3842 12.3865L15.8903 15.8926M15.8903 4.10748L12.3572 7.64054M18.3333 10C18.3333 14.6024 14.6023 18.3334 9.99996 18.3334C5.39759 18.3334 1.66663 14.6024 1.66663 10C1.66663 5.39765 5.39759 1.66669 9.99996 1.66669C14.6023 1.66669 18.3333 5.39765 18.3333 10ZM13.3333 10C13.3333 11.841 11.8409 13.3334 9.99996 13.3334C8.15901 13.3334 6.66663 11.841 6.66663 10C6.66663 8.15907 8.15901 6.66669 9.99996 6.66669C11.8409 6.66669 13.3333 8.15907 13.3333 10Z" stroke="#717680" stroke-width="1.67" stroke-linecap="round" stroke-linejoin="round"/>
</svg>
