<svg width="18" height="18" viewBox="0 0 18 18" fill="none" xmlns="http://www.w3.org/2000/svg">
<path d="M16.5 9C16.5 13.1421 13.1421 16.5 9 16.5C8.00238 16.5 7.05025 16.3052 6.17958 15.9516C6.01294 15.8839 5.92962 15.8501 5.86227 15.835C5.79638 15.8202 5.74763 15.8148 5.68011 15.8148C5.61109 15.8148 5.53591 15.8273 5.38554 15.8524L2.42063 16.3466C2.11015 16.3983 1.95491 16.4242 1.84265 16.376C1.7444 16.3339 1.66611 16.2556 1.62397 16.1573C1.57582 16.0451 1.60169 15.8898 1.65344 15.5794L2.14759 12.6145C2.17265 12.4641 2.18518 12.3889 2.18517 12.3199C2.18516 12.2524 2.17976 12.2036 2.165 12.1377C2.1499 12.0704 2.11606 11.9871 2.04839 11.8204C1.69478 10.9497 1.5 9.99762 1.5 9C1.5 4.85786 4.85786 1.5 9 1.5C13.1421 1.5 16.5 4.85786 16.5 9Z" stroke="#717680" stroke-width="1.67" stroke-linecap="round" stroke-linejoin="round"/>
</svg>
